<mxfile host="app.diagrams.net" modified="2024-03-25T11:33:17.739Z" agent="Mozilla/5.0 (Windows NT 10.0; Win64; x64) AppleWebKit/537.36 (KHTML, like Gecko) Chrome/122.0.0.0 Safari/537.36 Edg/122.0.0.0" etag="9FMm9p4u0ht7hDHlJ9ov" version="24.1.0" type="github">
  <diagram id="6a731a19-8d31-9384-78a2-239565b7b9f0" name="Page-1">
    <mxGraphModel dx="1183" dy="841" grid="1" gridSize="10" guides="1" tooltips="1" connect="1" arrows="1" fold="1" page="1" pageScale="1" pageWidth="1169" pageHeight="827" background="none" math="0" shadow="0">
      <root>
        <mxCell id="0" />
        <mxCell id="1" parent="0" />
        <mxCell id="N_Z27FUm-L29HuMscnK1-55" value="" style="ellipse;whiteSpace=wrap;html=1;aspect=fixed;fillColor=#050505;strokeWidth=2;spacing=2;fontSize=20;fontColor=default;labelBackgroundColor=none;horizontal=1;" vertex="1" parent="1">
          <mxGeometry x="20" y="705" width="30" height="30" as="geometry" />
        </mxCell>
        <mxCell id="N_Z27FUm-L29HuMscnK1-57" value="&lt;font style=&quot;font-size: 20px;&quot;&gt;用户是否登录&lt;/font&gt;" style="rhombus;whiteSpace=wrap;html=1;strokeWidth=2;spacing=2;fontSize=20;fontColor=default;labelBackgroundColor=none;horizontal=1;" vertex="1" parent="1">
          <mxGeometry x="70.53" y="680" width="260" height="80" as="geometry" />
        </mxCell>
        <mxCell id="N_Z27FUm-L29HuMscnK1-58" value="" style="group;strokeWidth=2;spacing=2;fontSize=20;fontColor=default;labelBackgroundColor=none;horizontal=1;" vertex="1" connectable="0" parent="1">
          <mxGeometry x="140.53" y="855" width="120" height="60" as="geometry" />
        </mxCell>
        <mxCell id="N_Z27FUm-L29HuMscnK1-59" value="&lt;font style=&quot;font-size: 20px;&quot;&gt;管理员登录&lt;/font&gt;" style="rounded=0;whiteSpace=wrap;html=1;strokeWidth=2;spacing=2;fontSize=20;fontColor=default;labelBackgroundColor=none;horizontal=1;" vertex="1" parent="N_Z27FUm-L29HuMscnK1-58">
          <mxGeometry width="120" height="60" as="geometry" />
        </mxCell>
        <mxCell id="N_Z27FUm-L29HuMscnK1-60" value="" style="endArrow=classic;html=1;rounded=0;entryX=0.5;entryY=0;entryDx=0;entryDy=0;strokeWidth=2;spacing=2;fontSize=20;fontColor=default;labelBackgroundColor=none;horizontal=1;" edge="1" parent="1">
          <mxGeometry width="50" height="50" relative="1" as="geometry">
            <mxPoint x="201" y="760" as="sourcePoint" />
            <mxPoint x="201.53" y="855" as="targetPoint" />
          </mxGeometry>
        </mxCell>
        <mxCell id="N_Z27FUm-L29HuMscnK1-61" value="否" style="edgeLabel;html=1;align=center;verticalAlign=middle;resizable=0;points=[];fontSize=20;" vertex="1" connectable="0" parent="N_Z27FUm-L29HuMscnK1-60">
          <mxGeometry x="-0.1623" relative="1" as="geometry">
            <mxPoint as="offset" />
          </mxGeometry>
        </mxCell>
        <mxCell id="N_Z27FUm-L29HuMscnK1-62" value="" style="endArrow=classic;html=1;rounded=0;exitX=1;exitY=0.5;exitDx=0;exitDy=0;entryX=0;entryY=0.5;entryDx=0;entryDy=0;strokeWidth=2;spacing=2;fontSize=20;fontColor=default;labelBackgroundColor=none;horizontal=1;" edge="1" parent="1" source="N_Z27FUm-L29HuMscnK1-55" target="N_Z27FUm-L29HuMscnK1-57">
          <mxGeometry width="50" height="50" relative="1" as="geometry">
            <mxPoint x="340.53" y="870" as="sourcePoint" />
            <mxPoint x="390.53" y="820" as="targetPoint" />
          </mxGeometry>
        </mxCell>
        <mxCell id="N_Z27FUm-L29HuMscnK1-63" value="" style="group;strokeWidth=2;spacing=2;fontSize=20;fontColor=default;labelBackgroundColor=none;horizontal=1;" vertex="1" connectable="0" parent="1">
          <mxGeometry x="430" y="690" width="120" height="60" as="geometry" />
        </mxCell>
        <mxCell id="N_Z27FUm-L29HuMscnK1-64" value="&lt;font style=&quot;font-size: 20px;&quot;&gt;用户、成果信息认证&lt;/font&gt;" style="rounded=0;whiteSpace=wrap;html=1;strokeWidth=2;spacing=2;fontSize=20;fontColor=default;labelBackgroundColor=none;horizontal=1;" vertex="1" parent="N_Z27FUm-L29HuMscnK1-63">
          <mxGeometry width="120" height="60" as="geometry" />
        </mxCell>
        <mxCell id="N_Z27FUm-L29HuMscnK1-65" value="" style="group;strokeWidth=2;spacing=2;fontSize=20;fontColor=default;labelBackgroundColor=none;horizontal=1;" vertex="1" connectable="0" parent="1">
          <mxGeometry x="430" y="580" width="120" height="60" as="geometry" />
        </mxCell>
        <mxCell id="N_Z27FUm-L29HuMscnK1-66" value="&lt;font style=&quot;font-size: 20px;&quot;&gt;对接订单管理&lt;/font&gt;" style="rounded=0;whiteSpace=wrap;html=1;strokeWidth=2;spacing=2;fontSize=20;fontColor=default;labelBackgroundColor=none;horizontal=1;" vertex="1" parent="N_Z27FUm-L29HuMscnK1-65">
          <mxGeometry width="120" height="60" as="geometry" />
        </mxCell>
        <mxCell id="N_Z27FUm-L29HuMscnK1-67" value="" style="group;strokeWidth=2;spacing=2;fontSize=20;fontColor=default;labelBackgroundColor=none;horizontal=1;" vertex="1" connectable="0" parent="1">
          <mxGeometry x="430" y="480" width="120" height="60" as="geometry" />
        </mxCell>
        <mxCell id="N_Z27FUm-L29HuMscnK1-68" value="&lt;font style=&quot;font-size: 20px;&quot;&gt;数据信息统计&lt;/font&gt;" style="rounded=0;whiteSpace=wrap;html=1;strokeWidth=2;spacing=2;fontSize=20;fontColor=default;labelBackgroundColor=none;horizontal=1;" vertex="1" parent="N_Z27FUm-L29HuMscnK1-67">
          <mxGeometry width="120" height="60" as="geometry" />
        </mxCell>
        <mxCell id="N_Z27FUm-L29HuMscnK1-71" value="总体数据展示" style="shape=parallelogram;html=1;strokeWidth=2;perimeter=parallelogramPerimeter;whiteSpace=wrap;rounded=1;arcSize=12;size=0.23;fontSize=20;" vertex="1" parent="1">
          <mxGeometry x="640" y="480" width="180" height="60" as="geometry" />
        </mxCell>
        <mxCell id="N_Z27FUm-L29HuMscnK1-72" value="订单信息条目" style="shape=parallelogram;html=1;strokeWidth=2;perimeter=parallelogramPerimeter;whiteSpace=wrap;rounded=1;arcSize=12;size=0.23;fontSize=20;" vertex="1" parent="1">
          <mxGeometry x="640" y="580" width="180" height="60" as="geometry" />
        </mxCell>
        <mxCell id="N_Z27FUm-L29HuMscnK1-73" value="多轮消息沟通" style="shape=parallelogram;html=1;strokeWidth=2;perimeter=parallelogramPerimeter;whiteSpace=wrap;rounded=1;arcSize=12;size=0.23;fontSize=20;" vertex="1" parent="1">
          <mxGeometry x="640" y="900" width="180" height="60" as="geometry" />
        </mxCell>
        <mxCell id="N_Z27FUm-L29HuMscnK1-74" value="审核信息条目" style="shape=parallelogram;html=1;strokeWidth=2;perimeter=parallelogramPerimeter;whiteSpace=wrap;rounded=1;arcSize=12;size=0.23;fontSize=20;" vertex="1" parent="1">
          <mxGeometry x="640" y="690" width="180" height="60" as="geometry" />
        </mxCell>
        <mxCell id="N_Z27FUm-L29HuMscnK1-75" value="实体增删改查" style="shape=parallelogram;html=1;strokeWidth=2;perimeter=parallelogramPerimeter;whiteSpace=wrap;rounded=1;arcSize=12;size=0.23;fontSize=20;" vertex="1" parent="1">
          <mxGeometry x="640" y="790" width="180" height="60" as="geometry" />
        </mxCell>
        <mxCell id="N_Z27FUm-L29HuMscnK1-76" value="" style="group;strokeWidth=2;spacing=2;fontSize=20;fontColor=default;labelBackgroundColor=none;horizontal=1;" vertex="1" connectable="0" parent="1">
          <mxGeometry x="430" y="795" width="120" height="60" as="geometry" />
        </mxCell>
        <mxCell id="N_Z27FUm-L29HuMscnK1-77" value="&lt;font style=&quot;font-size: 20px;&quot;&gt;数据库管理&lt;/font&gt;" style="rounded=0;whiteSpace=wrap;html=1;strokeWidth=2;spacing=2;fontSize=20;fontColor=default;labelBackgroundColor=none;horizontal=1;" vertex="1" parent="N_Z27FUm-L29HuMscnK1-76">
          <mxGeometry width="120" height="60" as="geometry" />
        </mxCell>
        <mxCell id="N_Z27FUm-L29HuMscnK1-78" value="" style="group;strokeWidth=2;spacing=2;fontSize=20;fontColor=default;labelBackgroundColor=none;horizontal=1;" vertex="1" connectable="0" parent="1">
          <mxGeometry x="430" y="900" width="120" height="60" as="geometry" />
        </mxCell>
        <mxCell id="N_Z27FUm-L29HuMscnK1-79" value="&lt;font style=&quot;font-size: 20px;&quot;&gt;用户问题回复&lt;/font&gt;" style="rounded=0;whiteSpace=wrap;html=1;strokeWidth=2;spacing=2;fontSize=20;fontColor=default;labelBackgroundColor=none;horizontal=1;" vertex="1" parent="N_Z27FUm-L29HuMscnK1-78">
          <mxGeometry width="120" height="60" as="geometry" />
        </mxCell>
      </root>
    </mxGraphModel>
  </diagram>
</mxfile>
